<mxfile host="Electron" modified="2023-10-26T02:35:21.680Z" agent="Mozilla/5.0 (Windows NT 10.0; Win64; x64) AppleWebKit/537.36 (KHTML, like Gecko) draw.io/22.0.3 Chrome/114.0.5735.289 Electron/25.8.4 Safari/537.36" etag="hCfQTew1o_baBulwj9zM" version="22.0.3" type="device">
  <diagram name="第 1 页" id="-LLjQUr8ZXZE0aKfJz2Y">
    <mxGraphModel dx="780" dy="1665" grid="1" gridSize="10" guides="1" tooltips="1" connect="1" arrows="1" fold="1" page="1" pageScale="1" pageWidth="827" pageHeight="1169" math="0" shadow="0">
      <root>
        <mxCell id="0" />
        <mxCell id="1" parent="0" />
        <mxCell id="o5Dc9ry5pBF1kSQfZfNr-97" value="" style="whiteSpace=wrap;html=1;rounded=0;" vertex="1" parent="1">
          <mxGeometry x="145" y="1120" width="325" height="210" as="geometry" />
        </mxCell>
        <mxCell id="o5Dc9ry5pBF1kSQfZfNr-1" value="事件模型，生命周期" style="text;html=1;strokeColor=none;fillColor=none;align=center;verticalAlign=middle;whiteSpace=wrap;rounded=0;" vertex="1" parent="1">
          <mxGeometry x="60" y="308.75" width="130" height="40" as="geometry" />
        </mxCell>
        <mxCell id="o5Dc9ry5pBF1kSQfZfNr-2" value="路由策略" style="text;html=1;strokeColor=none;fillColor=none;align=center;verticalAlign=middle;whiteSpace=wrap;rounded=0;" vertex="1" parent="1">
          <mxGeometry x="85" y="615" width="60" height="30" as="geometry" />
        </mxCell>
        <mxCell id="o5Dc9ry5pBF1kSQfZfNr-3" value="事件处理" style="text;html=1;strokeColor=none;fillColor=none;align=center;verticalAlign=middle;whiteSpace=wrap;rounded=0;" vertex="1" parent="1">
          <mxGeometry x="75" y="885" width="60" height="30" as="geometry" />
        </mxCell>
        <mxCell id="o5Dc9ry5pBF1kSQfZfNr-4" value="监控管理" style="text;html=1;strokeColor=none;fillColor=none;align=center;verticalAlign=middle;whiteSpace=wrap;rounded=0;" vertex="1" parent="1">
          <mxGeometry x="70" y="985" width="60" height="30" as="geometry" />
        </mxCell>
        <mxCell id="o5Dc9ry5pBF1kSQfZfNr-5" value="事件输入和输出" style="text;html=1;strokeColor=none;fillColor=none;align=center;verticalAlign=middle;whiteSpace=wrap;rounded=0;" vertex="1" parent="1">
          <mxGeometry x="60" y="188.75" width="115" height="30" as="geometry" />
        </mxCell>
        <mxCell id="o5Dc9ry5pBF1kSQfZfNr-8" value="" style="edgeStyle=orthogonalEdgeStyle;rounded=0;orthogonalLoop=1;jettySize=auto;html=1;" edge="1" parent="1" source="o5Dc9ry5pBF1kSQfZfNr-6" target="o5Dc9ry5pBF1kSQfZfNr-7">
          <mxGeometry relative="1" as="geometry" />
        </mxCell>
        <mxCell id="o5Dc9ry5pBF1kSQfZfNr-6" value="事件接入" style="rounded=0;whiteSpace=wrap;html=1;" vertex="1" parent="1">
          <mxGeometry x="250" y="178.75" width="120" height="50" as="geometry" />
        </mxCell>
        <mxCell id="o5Dc9ry5pBF1kSQfZfNr-10" value="" style="edgeStyle=orthogonalEdgeStyle;rounded=0;orthogonalLoop=1;jettySize=auto;html=1;" edge="1" parent="1" source="o5Dc9ry5pBF1kSQfZfNr-7" target="o5Dc9ry5pBF1kSQfZfNr-9">
          <mxGeometry relative="1" as="geometry" />
        </mxCell>
        <mxCell id="o5Dc9ry5pBF1kSQfZfNr-7" value="事件模型适配器" style="rounded=0;whiteSpace=wrap;html=1;fillColor=#d5e8d4;strokeColor=#82b366;" vertex="1" parent="1">
          <mxGeometry x="450" y="178.75" width="120" height="50" as="geometry" />
        </mxCell>
        <mxCell id="o5Dc9ry5pBF1kSQfZfNr-12" value="" style="edgeStyle=orthogonalEdgeStyle;rounded=0;orthogonalLoop=1;jettySize=auto;html=1;" edge="1" parent="1" source="o5Dc9ry5pBF1kSQfZfNr-9" target="o5Dc9ry5pBF1kSQfZfNr-11">
          <mxGeometry relative="1" as="geometry" />
        </mxCell>
        <mxCell id="o5Dc9ry5pBF1kSQfZfNr-9" value="消息队列" style="whiteSpace=wrap;html=1;rounded=0;" vertex="1" parent="1">
          <mxGeometry x="650" y="173.75" width="120" height="60" as="geometry" />
        </mxCell>
        <mxCell id="o5Dc9ry5pBF1kSQfZfNr-14" value="" style="edgeStyle=orthogonalEdgeStyle;rounded=0;orthogonalLoop=1;jettySize=auto;html=1;" edge="1" parent="1" source="o5Dc9ry5pBF1kSQfZfNr-11" target="o5Dc9ry5pBF1kSQfZfNr-13">
          <mxGeometry relative="1" as="geometry" />
        </mxCell>
        <mxCell id="o5Dc9ry5pBF1kSQfZfNr-11" value="事件处理" style="whiteSpace=wrap;html=1;rounded=0;" vertex="1" parent="1">
          <mxGeometry x="850" y="173.75" width="120" height="60" as="geometry" />
        </mxCell>
        <mxCell id="o5Dc9ry5pBF1kSQfZfNr-16" value="" style="edgeStyle=orthogonalEdgeStyle;rounded=0;orthogonalLoop=1;jettySize=auto;html=1;" edge="1" parent="1" source="o5Dc9ry5pBF1kSQfZfNr-13" target="o5Dc9ry5pBF1kSQfZfNr-15">
          <mxGeometry relative="1" as="geometry" />
        </mxCell>
        <mxCell id="o5Dc9ry5pBF1kSQfZfNr-13" value="消息队列" style="whiteSpace=wrap;html=1;rounded=0;align=center;verticalAlign=top;" vertex="1" parent="1">
          <mxGeometry x="1010" y="160" width="200" height="87.5" as="geometry" />
        </mxCell>
        <mxCell id="o5Dc9ry5pBF1kSQfZfNr-15" value="事件输出" style="whiteSpace=wrap;html=1;rounded=0;" vertex="1" parent="1">
          <mxGeometry x="1250" y="173.75" width="120" height="60" as="geometry" />
        </mxCell>
        <mxCell id="o5Dc9ry5pBF1kSQfZfNr-17" value="事件模型" style="whiteSpace=wrap;html=1;rounded=0;" vertex="1" parent="1">
          <mxGeometry x="250" y="298.75" width="120" height="60" as="geometry" />
        </mxCell>
        <mxCell id="o5Dc9ry5pBF1kSQfZfNr-21" value="" style="edgeStyle=orthogonalEdgeStyle;rounded=0;orthogonalLoop=1;jettySize=auto;html=1;" edge="1" parent="1" source="o5Dc9ry5pBF1kSQfZfNr-19" target="o5Dc9ry5pBF1kSQfZfNr-20">
          <mxGeometry relative="1" as="geometry" />
        </mxCell>
        <mxCell id="o5Dc9ry5pBF1kSQfZfNr-19" value="发起方" style="rounded=0;whiteSpace=wrap;html=1;" vertex="1" parent="1">
          <mxGeometry x="235" y="600" width="120" height="60" as="geometry" />
        </mxCell>
        <mxCell id="o5Dc9ry5pBF1kSQfZfNr-23" value="" style="edgeStyle=orthogonalEdgeStyle;rounded=0;orthogonalLoop=1;jettySize=auto;html=1;" edge="1" parent="1" source="o5Dc9ry5pBF1kSQfZfNr-20" target="o5Dc9ry5pBF1kSQfZfNr-22">
          <mxGeometry relative="1" as="geometry" />
        </mxCell>
        <mxCell id="o5Dc9ry5pBF1kSQfZfNr-24" value="" style="edgeStyle=orthogonalEdgeStyle;rounded=0;orthogonalLoop=1;jettySize=auto;html=1;" edge="1" parent="1" source="o5Dc9ry5pBF1kSQfZfNr-20" target="o5Dc9ry5pBF1kSQfZfNr-22">
          <mxGeometry relative="1" as="geometry" />
        </mxCell>
        <mxCell id="o5Dc9ry5pBF1kSQfZfNr-25" value="" style="edgeStyle=orthogonalEdgeStyle;rounded=0;orthogonalLoop=1;jettySize=auto;html=1;" edge="1" parent="1" source="o5Dc9ry5pBF1kSQfZfNr-20" target="o5Dc9ry5pBF1kSQfZfNr-22">
          <mxGeometry relative="1" as="geometry" />
        </mxCell>
        <mxCell id="o5Dc9ry5pBF1kSQfZfNr-26" value="" style="edgeStyle=orthogonalEdgeStyle;rounded=0;orthogonalLoop=1;jettySize=auto;html=1;" edge="1" parent="1" source="o5Dc9ry5pBF1kSQfZfNr-20" target="o5Dc9ry5pBF1kSQfZfNr-22">
          <mxGeometry relative="1" as="geometry" />
        </mxCell>
        <mxCell id="o5Dc9ry5pBF1kSQfZfNr-28" style="edgeStyle=orthogonalEdgeStyle;rounded=0;orthogonalLoop=1;jettySize=auto;html=1;" edge="1" parent="1" source="o5Dc9ry5pBF1kSQfZfNr-20" target="o5Dc9ry5pBF1kSQfZfNr-27">
          <mxGeometry relative="1" as="geometry" />
        </mxCell>
        <mxCell id="o5Dc9ry5pBF1kSQfZfNr-92" style="edgeStyle=orthogonalEdgeStyle;rounded=0;orthogonalLoop=1;jettySize=auto;html=1;exitX=0.5;exitY=1;exitDx=0;exitDy=0;entryX=0.5;entryY=0;entryDx=0;entryDy=0;" edge="1" parent="1" source="o5Dc9ry5pBF1kSQfZfNr-20" target="o5Dc9ry5pBF1kSQfZfNr-88">
          <mxGeometry relative="1" as="geometry" />
        </mxCell>
        <mxCell id="o5Dc9ry5pBF1kSQfZfNr-20" value="路由策略" style="whiteSpace=wrap;html=1;rounded=0;fillColor=#d5e8d4;strokeColor=#82b366;" vertex="1" parent="1">
          <mxGeometry x="435" y="600" width="120" height="60" as="geometry" />
        </mxCell>
        <mxCell id="o5Dc9ry5pBF1kSQfZfNr-22" value="接收方1" style="whiteSpace=wrap;html=1;rounded=0;" vertex="1" parent="1">
          <mxGeometry x="645" y="540" width="120" height="60" as="geometry" />
        </mxCell>
        <mxCell id="o5Dc9ry5pBF1kSQfZfNr-27" value="接收方2" style="whiteSpace=wrap;html=1;rounded=0;" vertex="1" parent="1">
          <mxGeometry x="645" y="655" width="120" height="60" as="geometry" />
        </mxCell>
        <mxCell id="o5Dc9ry5pBF1kSQfZfNr-29" value="事件处理" style="rounded=0;whiteSpace=wrap;html=1;" vertex="1" parent="1">
          <mxGeometry x="225" y="870" width="120" height="60" as="geometry" />
        </mxCell>
        <mxCell id="o5Dc9ry5pBF1kSQfZfNr-30" value="输出1" style="ellipse;whiteSpace=wrap;html=1;" vertex="1" parent="1">
          <mxGeometry x="1030" y="200" width="80" height="35" as="geometry" />
        </mxCell>
        <mxCell id="o5Dc9ry5pBF1kSQfZfNr-31" value="输出2" style="ellipse;whiteSpace=wrap;html=1;" vertex="1" parent="1">
          <mxGeometry x="1120" y="200" width="80" height="35" as="geometry" />
        </mxCell>
        <mxCell id="o5Dc9ry5pBF1kSQfZfNr-34" value="" style="edgeStyle=orthogonalEdgeStyle;rounded=0;orthogonalLoop=1;jettySize=auto;html=1;" edge="1" parent="1" source="o5Dc9ry5pBF1kSQfZfNr-32" target="o5Dc9ry5pBF1kSQfZfNr-33">
          <mxGeometry relative="1" as="geometry" />
        </mxCell>
        <mxCell id="o5Dc9ry5pBF1kSQfZfNr-32" value="事件接入接口" style="rounded=0;whiteSpace=wrap;html=1;" vertex="1" parent="1">
          <mxGeometry x="330" y="-200" width="120" height="60" as="geometry" />
        </mxCell>
        <mxCell id="o5Dc9ry5pBF1kSQfZfNr-46" style="edgeStyle=orthogonalEdgeStyle;rounded=0;orthogonalLoop=1;jettySize=auto;html=1;exitX=0.5;exitY=0;exitDx=0;exitDy=0;entryX=0;entryY=0.5;entryDx=0;entryDy=0;" edge="1" parent="1" source="o5Dc9ry5pBF1kSQfZfNr-33" target="o5Dc9ry5pBF1kSQfZfNr-43">
          <mxGeometry relative="1" as="geometry" />
        </mxCell>
        <mxCell id="o5Dc9ry5pBF1kSQfZfNr-33" value="数据接入处理" style="whiteSpace=wrap;html=1;rounded=0;" vertex="1" parent="1">
          <mxGeometry x="530" y="-200" width="120" height="60" as="geometry" />
        </mxCell>
        <mxCell id="o5Dc9ry5pBF1kSQfZfNr-50" style="edgeStyle=orthogonalEdgeStyle;rounded=0;orthogonalLoop=1;jettySize=auto;html=1;exitX=1;exitY=0;exitDx=0;exitDy=45;exitPerimeter=0;entryX=0;entryY=0.5;entryDx=0;entryDy=0;" edge="1" parent="1" source="o5Dc9ry5pBF1kSQfZfNr-39" target="o5Dc9ry5pBF1kSQfZfNr-47">
          <mxGeometry relative="1" as="geometry">
            <Array as="points">
              <mxPoint x="805" y="-175" />
            </Array>
          </mxGeometry>
        </mxCell>
        <mxCell id="o5Dc9ry5pBF1kSQfZfNr-51" value="调度补偿任务" style="edgeLabel;html=1;align=center;verticalAlign=middle;resizable=0;points=[];" vertex="1" connectable="0" parent="o5Dc9ry5pBF1kSQfZfNr-50">
          <mxGeometry x="-0.0476" relative="1" as="geometry">
            <mxPoint as="offset" />
          </mxGeometry>
        </mxCell>
        <mxCell id="o5Dc9ry5pBF1kSQfZfNr-39" value="Mysql" style="shape=cylinder3;whiteSpace=wrap;html=1;boundedLbl=1;backgroundOutline=1;size=15;" vertex="1" parent="1">
          <mxGeometry x="725" y="-205" width="80" height="70" as="geometry" />
        </mxCell>
        <mxCell id="o5Dc9ry5pBF1kSQfZfNr-40" value="已完成/退回发起方" style="text;html=1;strokeColor=none;fillColor=none;align=center;verticalAlign=middle;whiteSpace=wrap;rounded=0;fontStyle=1;fontColor=#0D1DFF;" vertex="1" parent="1">
          <mxGeometry x="1170" y="-10" width="110" height="40" as="geometry" />
        </mxCell>
        <mxCell id="o5Dc9ry5pBF1kSQfZfNr-41" style="edgeStyle=orthogonalEdgeStyle;rounded=0;orthogonalLoop=1;jettySize=auto;html=1;exitX=1;exitY=0.5;exitDx=0;exitDy=0;entryX=0;entryY=0.5;entryDx=0;entryDy=0;entryPerimeter=0;" edge="1" parent="1" source="o5Dc9ry5pBF1kSQfZfNr-33" target="o5Dc9ry5pBF1kSQfZfNr-39">
          <mxGeometry relative="1" as="geometry" />
        </mxCell>
        <mxCell id="o5Dc9ry5pBF1kSQfZfNr-48" style="edgeStyle=orthogonalEdgeStyle;rounded=0;orthogonalLoop=1;jettySize=auto;html=1;exitX=1;exitY=0.5;exitDx=0;exitDy=0;entryX=0.5;entryY=0;entryDx=0;entryDy=0;" edge="1" parent="1" source="o5Dc9ry5pBF1kSQfZfNr-43" target="o5Dc9ry5pBF1kSQfZfNr-47">
          <mxGeometry relative="1" as="geometry" />
        </mxCell>
        <mxCell id="o5Dc9ry5pBF1kSQfZfNr-43" value="调度队列" style="whiteSpace=wrap;html=1;rounded=0;" vertex="1" parent="1">
          <mxGeometry x="735" y="-330" width="120" height="60" as="geometry" />
        </mxCell>
        <mxCell id="o5Dc9ry5pBF1kSQfZfNr-54" style="edgeStyle=orthogonalEdgeStyle;rounded=0;orthogonalLoop=1;jettySize=auto;html=1;exitX=0.5;exitY=1;exitDx=0;exitDy=0;entryX=0.5;entryY=1;entryDx=0;entryDy=0;entryPerimeter=0;" edge="1" parent="1" source="o5Dc9ry5pBF1kSQfZfNr-47" target="o5Dc9ry5pBF1kSQfZfNr-39">
          <mxGeometry relative="1" as="geometry">
            <mxPoint x="1015" y="-90" as="targetPoint" />
          </mxGeometry>
        </mxCell>
        <mxCell id="o5Dc9ry5pBF1kSQfZfNr-58" value="update调度状态" style="edgeLabel;html=1;align=center;verticalAlign=middle;resizable=0;points=[];" vertex="1" connectable="0" parent="o5Dc9ry5pBF1kSQfZfNr-54">
          <mxGeometry x="-0.0222" y="2" relative="1" as="geometry">
            <mxPoint as="offset" />
          </mxGeometry>
        </mxCell>
        <mxCell id="o5Dc9ry5pBF1kSQfZfNr-47" value="调度逻辑" style="rounded=0;whiteSpace=wrap;html=1;" vertex="1" parent="1">
          <mxGeometry x="955" y="-205" width="120" height="60" as="geometry" />
        </mxCell>
        <mxCell id="o5Dc9ry5pBF1kSQfZfNr-59" value="处置中/调度异常" style="text;html=1;strokeColor=none;fillColor=none;align=center;verticalAlign=middle;whiteSpace=wrap;rounded=0;fontStyle=1;fontColor=#0D1DFF;" vertex="1" parent="1">
          <mxGeometry x="710" y="-100" width="105" height="30" as="geometry" />
        </mxCell>
        <mxCell id="o5Dc9ry5pBF1kSQfZfNr-60" value="事件处置" style="rounded=0;whiteSpace=wrap;html=1;" vertex="1" parent="1">
          <mxGeometry x="1160" y="-205" width="120" height="60" as="geometry" />
        </mxCell>
        <mxCell id="o5Dc9ry5pBF1kSQfZfNr-61" value="Mysql" style="shape=cylinder3;whiteSpace=wrap;html=1;boundedLbl=1;backgroundOutline=1;size=15;" vertex="1" parent="1">
          <mxGeometry x="1180" y="-80" width="80" height="70" as="geometry" />
        </mxCell>
        <mxCell id="o5Dc9ry5pBF1kSQfZfNr-62" style="edgeStyle=orthogonalEdgeStyle;rounded=0;orthogonalLoop=1;jettySize=auto;html=1;exitX=0.5;exitY=1;exitDx=0;exitDy=0;entryX=0.5;entryY=0;entryDx=0;entryDy=0;entryPerimeter=0;" edge="1" parent="1" source="o5Dc9ry5pBF1kSQfZfNr-60" target="o5Dc9ry5pBF1kSQfZfNr-61">
          <mxGeometry relative="1" as="geometry" />
        </mxCell>
        <mxCell id="o5Dc9ry5pBF1kSQfZfNr-63" value="Table" style="shape=table;startSize=30;container=1;collapsible=1;childLayout=tableLayout;fixedRows=1;rowLines=0;fontStyle=1;align=center;resizeLast=1;html=1;" vertex="1" parent="1">
          <mxGeometry x="420" y="270" width="180" height="270" as="geometry" />
        </mxCell>
        <mxCell id="o5Dc9ry5pBF1kSQfZfNr-64" value="" style="shape=tableRow;horizontal=0;startSize=0;swimlaneHead=0;swimlaneBody=0;fillColor=none;collapsible=0;dropTarget=0;points=[[0,0.5],[1,0.5]];portConstraint=eastwest;top=0;left=0;right=0;bottom=1;" vertex="1" parent="o5Dc9ry5pBF1kSQfZfNr-63">
          <mxGeometry y="30" width="180" height="30" as="geometry" />
        </mxCell>
        <mxCell id="o5Dc9ry5pBF1kSQfZfNr-65" value="PK" style="shape=partialRectangle;connectable=0;fillColor=none;top=0;left=0;bottom=0;right=0;fontStyle=1;overflow=hidden;whiteSpace=wrap;html=1;" vertex="1" parent="o5Dc9ry5pBF1kSQfZfNr-64">
          <mxGeometry width="30" height="30" as="geometry">
            <mxRectangle width="30" height="30" as="alternateBounds" />
          </mxGeometry>
        </mxCell>
        <mxCell id="o5Dc9ry5pBF1kSQfZfNr-66" value="UniqueID" style="shape=partialRectangle;connectable=0;fillColor=none;top=0;left=0;bottom=0;right=0;align=left;spacingLeft=6;fontStyle=5;overflow=hidden;whiteSpace=wrap;html=1;" vertex="1" parent="o5Dc9ry5pBF1kSQfZfNr-64">
          <mxGeometry x="30" width="150" height="30" as="geometry">
            <mxRectangle width="150" height="30" as="alternateBounds" />
          </mxGeometry>
        </mxCell>
        <mxCell id="o5Dc9ry5pBF1kSQfZfNr-67" value="" style="shape=tableRow;horizontal=0;startSize=0;swimlaneHead=0;swimlaneBody=0;fillColor=none;collapsible=0;dropTarget=0;points=[[0,0.5],[1,0.5]];portConstraint=eastwest;top=0;left=0;right=0;bottom=0;" vertex="1" parent="o5Dc9ry5pBF1kSQfZfNr-63">
          <mxGeometry y="60" width="180" height="30" as="geometry" />
        </mxCell>
        <mxCell id="o5Dc9ry5pBF1kSQfZfNr-68" value="" style="shape=partialRectangle;connectable=0;fillColor=none;top=0;left=0;bottom=0;right=0;editable=1;overflow=hidden;whiteSpace=wrap;html=1;" vertex="1" parent="o5Dc9ry5pBF1kSQfZfNr-67">
          <mxGeometry width="30" height="30" as="geometry">
            <mxRectangle width="30" height="30" as="alternateBounds" />
          </mxGeometry>
        </mxCell>
        <mxCell id="o5Dc9ry5pBF1kSQfZfNr-69" value="事件ID" style="shape=partialRectangle;connectable=0;fillColor=none;top=0;left=0;bottom=0;right=0;align=left;spacingLeft=6;overflow=hidden;whiteSpace=wrap;html=1;" vertex="1" parent="o5Dc9ry5pBF1kSQfZfNr-67">
          <mxGeometry x="30" width="150" height="30" as="geometry">
            <mxRectangle width="150" height="30" as="alternateBounds" />
          </mxGeometry>
        </mxCell>
        <mxCell id="o5Dc9ry5pBF1kSQfZfNr-70" value="" style="shape=tableRow;horizontal=0;startSize=0;swimlaneHead=0;swimlaneBody=0;fillColor=none;collapsible=0;dropTarget=0;points=[[0,0.5],[1,0.5]];portConstraint=eastwest;top=0;left=0;right=0;bottom=0;" vertex="1" parent="o5Dc9ry5pBF1kSQfZfNr-63">
          <mxGeometry y="90" width="180" height="30" as="geometry" />
        </mxCell>
        <mxCell id="o5Dc9ry5pBF1kSQfZfNr-71" value="" style="shape=partialRectangle;connectable=0;fillColor=none;top=0;left=0;bottom=0;right=0;editable=1;overflow=hidden;whiteSpace=wrap;html=1;" vertex="1" parent="o5Dc9ry5pBF1kSQfZfNr-70">
          <mxGeometry width="30" height="30" as="geometry">
            <mxRectangle width="30" height="30" as="alternateBounds" />
          </mxGeometry>
        </mxCell>
        <mxCell id="o5Dc9ry5pBF1kSQfZfNr-72" value="事件类型" style="shape=partialRectangle;connectable=0;fillColor=none;top=0;left=0;bottom=0;right=0;align=left;spacingLeft=6;overflow=hidden;whiteSpace=wrap;html=1;" vertex="1" parent="o5Dc9ry5pBF1kSQfZfNr-70">
          <mxGeometry x="30" width="150" height="30" as="geometry">
            <mxRectangle width="150" height="30" as="alternateBounds" />
          </mxGeometry>
        </mxCell>
        <mxCell id="o5Dc9ry5pBF1kSQfZfNr-73" value="" style="shape=tableRow;horizontal=0;startSize=0;swimlaneHead=0;swimlaneBody=0;fillColor=none;collapsible=0;dropTarget=0;points=[[0,0.5],[1,0.5]];portConstraint=eastwest;top=0;left=0;right=0;bottom=0;" vertex="1" parent="o5Dc9ry5pBF1kSQfZfNr-63">
          <mxGeometry y="120" width="180" height="30" as="geometry" />
        </mxCell>
        <mxCell id="o5Dc9ry5pBF1kSQfZfNr-74" value="" style="shape=partialRectangle;connectable=0;fillColor=none;top=0;left=0;bottom=0;right=0;editable=1;overflow=hidden;whiteSpace=wrap;html=1;" vertex="1" parent="o5Dc9ry5pBF1kSQfZfNr-73">
          <mxGeometry width="30" height="30" as="geometry">
            <mxRectangle width="30" height="30" as="alternateBounds" />
          </mxGeometry>
        </mxCell>
        <mxCell id="o5Dc9ry5pBF1kSQfZfNr-75" value="事件标题" style="shape=partialRectangle;connectable=0;fillColor=none;top=0;left=0;bottom=0;right=0;align=left;spacingLeft=6;overflow=hidden;whiteSpace=wrap;html=1;" vertex="1" parent="o5Dc9ry5pBF1kSQfZfNr-73">
          <mxGeometry x="30" width="150" height="30" as="geometry">
            <mxRectangle width="150" height="30" as="alternateBounds" />
          </mxGeometry>
        </mxCell>
        <mxCell id="o5Dc9ry5pBF1kSQfZfNr-76" style="shape=tableRow;horizontal=0;startSize=0;swimlaneHead=0;swimlaneBody=0;fillColor=none;collapsible=0;dropTarget=0;points=[[0,0.5],[1,0.5]];portConstraint=eastwest;top=0;left=0;right=0;bottom=0;" vertex="1" parent="o5Dc9ry5pBF1kSQfZfNr-63">
          <mxGeometry y="150" width="180" height="30" as="geometry" />
        </mxCell>
        <mxCell id="o5Dc9ry5pBF1kSQfZfNr-77" style="shape=partialRectangle;connectable=0;fillColor=none;top=0;left=0;bottom=0;right=0;editable=1;overflow=hidden;whiteSpace=wrap;html=1;" vertex="1" parent="o5Dc9ry5pBF1kSQfZfNr-76">
          <mxGeometry width="30" height="30" as="geometry">
            <mxRectangle width="30" height="30" as="alternateBounds" />
          </mxGeometry>
        </mxCell>
        <mxCell id="o5Dc9ry5pBF1kSQfZfNr-78" style="shape=partialRectangle;connectable=0;fillColor=none;top=0;left=0;bottom=0;right=0;align=left;spacingLeft=6;overflow=hidden;whiteSpace=wrap;html=1;" vertex="1" parent="o5Dc9ry5pBF1kSQfZfNr-76">
          <mxGeometry x="30" width="150" height="30" as="geometry">
            <mxRectangle width="150" height="30" as="alternateBounds" />
          </mxGeometry>
        </mxCell>
        <mxCell id="o5Dc9ry5pBF1kSQfZfNr-79" style="shape=tableRow;horizontal=0;startSize=0;swimlaneHead=0;swimlaneBody=0;fillColor=none;collapsible=0;dropTarget=0;points=[[0,0.5],[1,0.5]];portConstraint=eastwest;top=0;left=0;right=0;bottom=0;" vertex="1" parent="o5Dc9ry5pBF1kSQfZfNr-63">
          <mxGeometry y="180" width="180" height="30" as="geometry" />
        </mxCell>
        <mxCell id="o5Dc9ry5pBF1kSQfZfNr-80" style="shape=partialRectangle;connectable=0;fillColor=none;top=0;left=0;bottom=0;right=0;editable=1;overflow=hidden;whiteSpace=wrap;html=1;" vertex="1" parent="o5Dc9ry5pBF1kSQfZfNr-79">
          <mxGeometry width="30" height="30" as="geometry">
            <mxRectangle width="30" height="30" as="alternateBounds" />
          </mxGeometry>
        </mxCell>
        <mxCell id="o5Dc9ry5pBF1kSQfZfNr-81" style="shape=partialRectangle;connectable=0;fillColor=none;top=0;left=0;bottom=0;right=0;align=left;spacingLeft=6;overflow=hidden;whiteSpace=wrap;html=1;" vertex="1" parent="o5Dc9ry5pBF1kSQfZfNr-79">
          <mxGeometry x="30" width="150" height="30" as="geometry">
            <mxRectangle width="150" height="30" as="alternateBounds" />
          </mxGeometry>
        </mxCell>
        <mxCell id="o5Dc9ry5pBF1kSQfZfNr-82" style="shape=tableRow;horizontal=0;startSize=0;swimlaneHead=0;swimlaneBody=0;fillColor=none;collapsible=0;dropTarget=0;points=[[0,0.5],[1,0.5]];portConstraint=eastwest;top=0;left=0;right=0;bottom=0;" vertex="1" parent="o5Dc9ry5pBF1kSQfZfNr-63">
          <mxGeometry y="210" width="180" height="30" as="geometry" />
        </mxCell>
        <mxCell id="o5Dc9ry5pBF1kSQfZfNr-83" style="shape=partialRectangle;connectable=0;fillColor=none;top=0;left=0;bottom=0;right=0;editable=1;overflow=hidden;whiteSpace=wrap;html=1;" vertex="1" parent="o5Dc9ry5pBF1kSQfZfNr-82">
          <mxGeometry width="30" height="30" as="geometry">
            <mxRectangle width="30" height="30" as="alternateBounds" />
          </mxGeometry>
        </mxCell>
        <mxCell id="o5Dc9ry5pBF1kSQfZfNr-84" style="shape=partialRectangle;connectable=0;fillColor=none;top=0;left=0;bottom=0;right=0;align=left;spacingLeft=6;overflow=hidden;whiteSpace=wrap;html=1;" vertex="1" parent="o5Dc9ry5pBF1kSQfZfNr-82">
          <mxGeometry x="30" width="150" height="30" as="geometry">
            <mxRectangle width="150" height="30" as="alternateBounds" />
          </mxGeometry>
        </mxCell>
        <mxCell id="o5Dc9ry5pBF1kSQfZfNr-85" style="shape=tableRow;horizontal=0;startSize=0;swimlaneHead=0;swimlaneBody=0;fillColor=none;collapsible=0;dropTarget=0;points=[[0,0.5],[1,0.5]];portConstraint=eastwest;top=0;left=0;right=0;bottom=0;" vertex="1" parent="o5Dc9ry5pBF1kSQfZfNr-63">
          <mxGeometry y="240" width="180" height="30" as="geometry" />
        </mxCell>
        <mxCell id="o5Dc9ry5pBF1kSQfZfNr-86" style="shape=partialRectangle;connectable=0;fillColor=none;top=0;left=0;bottom=0;right=0;editable=1;overflow=hidden;whiteSpace=wrap;html=1;" vertex="1" parent="o5Dc9ry5pBF1kSQfZfNr-85">
          <mxGeometry width="30" height="30" as="geometry">
            <mxRectangle width="30" height="30" as="alternateBounds" />
          </mxGeometry>
        </mxCell>
        <mxCell id="o5Dc9ry5pBF1kSQfZfNr-87" style="shape=partialRectangle;connectable=0;fillColor=none;top=0;left=0;bottom=0;right=0;align=left;spacingLeft=6;overflow=hidden;whiteSpace=wrap;html=1;" vertex="1" parent="o5Dc9ry5pBF1kSQfZfNr-85">
          <mxGeometry x="30" width="150" height="30" as="geometry">
            <mxRectangle width="150" height="30" as="alternateBounds" />
          </mxGeometry>
        </mxCell>
        <mxCell id="o5Dc9ry5pBF1kSQfZfNr-88" value="路由类型" style="swimlane;fontStyle=0;childLayout=stackLayout;horizontal=1;startSize=26;horizontalStack=0;resizeParent=1;resizeParentMax=0;resizeLast=0;collapsible=1;marginBottom=0;align=center;fontSize=14;" vertex="1" parent="1">
          <mxGeometry x="415" y="730" width="160" height="116" as="geometry" />
        </mxCell>
        <mxCell id="o5Dc9ry5pBF1kSQfZfNr-89" value="直接转发" style="text;strokeColor=none;fillColor=none;spacingLeft=4;spacingRight=4;overflow=hidden;rotatable=0;points=[[0,0.5],[1,0.5]];portConstraint=eastwest;fontSize=12;whiteSpace=wrap;html=1;" vertex="1" parent="o5Dc9ry5pBF1kSQfZfNr-88">
          <mxGeometry y="26" width="160" height="30" as="geometry" />
        </mxCell>
        <mxCell id="o5Dc9ry5pBF1kSQfZfNr-90" value="映射" style="text;strokeColor=none;fillColor=none;spacingLeft=4;spacingRight=4;overflow=hidden;rotatable=0;points=[[0,0.5],[1,0.5]];portConstraint=eastwest;fontSize=12;whiteSpace=wrap;html=1;" vertex="1" parent="o5Dc9ry5pBF1kSQfZfNr-88">
          <mxGeometry y="56" width="160" height="30" as="geometry" />
        </mxCell>
        <mxCell id="o5Dc9ry5pBF1kSQfZfNr-91" value="Item 3" style="text;strokeColor=none;fillColor=none;spacingLeft=4;spacingRight=4;overflow=hidden;rotatable=0;points=[[0,0.5],[1,0.5]];portConstraint=eastwest;fontSize=12;whiteSpace=wrap;html=1;" vertex="1" parent="o5Dc9ry5pBF1kSQfZfNr-88">
          <mxGeometry y="86" width="160" height="30" as="geometry" />
        </mxCell>
        <mxCell id="o5Dc9ry5pBF1kSQfZfNr-93" value="Http源" style="rounded=0;whiteSpace=wrap;html=1;" vertex="1" parent="1">
          <mxGeometry x="180" y="1240" width="120" height="60" as="geometry" />
        </mxCell>
        <mxCell id="o5Dc9ry5pBF1kSQfZfNr-94" value="MQ源" style="rounded=0;whiteSpace=wrap;html=1;" vertex="1" parent="1">
          <mxGeometry x="320" y="1240" width="120" height="60" as="geometry" />
        </mxCell>
        <mxCell id="o5Dc9ry5pBF1kSQfZfNr-95" value="json映射器" style="rounded=0;whiteSpace=wrap;html=1;" vertex="1" parent="1">
          <mxGeometry x="320" y="1150" width="120" height="60" as="geometry" />
        </mxCell>
        <mxCell id="o5Dc9ry5pBF1kSQfZfNr-101" value="数据接收" style="text;html=1;strokeColor=none;fillColor=none;align=center;verticalAlign=middle;whiteSpace=wrap;rounded=0;" vertex="1" parent="1">
          <mxGeometry x="200" y="1160" width="80" height="30" as="geometry" />
        </mxCell>
      </root>
    </mxGraphModel>
  </diagram>
</mxfile>
